# xmcd
# 
# Track frame offsets:
#     183
#     17183
#     48418
# 
# Disc length: 1069
# 
# Revision: 13
# Processed by: cddbd v1.5.2PL0 Copyright (c) Steve Scherf et al.
# Submitted via: fre:ac v1.0.31
# 
DISCID=1e042b03
DTITLE=Nine Inch Nails - Down In It (Single)
DYEAR=1989
DGENRE=Rock
TTITLE0=Down In It (Skin)
TTITLE1=Down In It (Shred)
TTITLE2=Down In It (Singe)
EXTD=
EXTT0=
EXTT1=
EXTT2=
PLAYORDER=
